{
  "accessors": [
    {
      "bufferView": 2,
      "componentType": 5126,
      "count": 4,
      "max": [
        1.0,
        1.0,
        0.0
      ],
      "min": [
        -1.0,
        -1.0,
        0.0
      ],
      "type": "VEC3"
    },
    {
      "bufferView": 2,
      "byteOffset": 48,
      "componentType": 5126,
      "count": 4,
      "max": [
        0.0,
        0.0,
        1.0
      ],
      "min": [
        0.0,
        0.0,
        1.0
      ],
      "type": "VEC3"
    },
    {
      "bufferView": 1,
      "componentType": 5126,
      "count": 4,
      "max": [
        0.9999000430107117,
        0.9999000430107117
      ],
      "min": [
        9.998001041822135e-05,
        9.998001041822135e-05
      ],
      "type": "VEC2"
    },
    {
      "bufferView": 0,
      "componentType": 5125,
      "count": 6,
      "type": "SCALAR"
    },
    {
      "bufferView": 2,
      "byteOffset": 96,
      "componentType": 5126,
      "count": 4,
      "max": [
        1.0,
        1.0,
        0.0
      ],
      "min": [
        -1.0,
        -1.0,
        0.0
      ],
      "type": "VEC3"
    },
    {
      "bufferView": 2,
      "byteOffset": 144,
      "componentType": 5126,
      "count": 4,
      "max": [
        0.0,
        0.0,
        1.0
      ],
      "min": [
        0.0,
        0.0,
        1.0
      ],
      "type": "VEC3"
    },
    {
      "bufferView": 1,
      "byteOffset": 32,
      "componentType": 5126,
      "count": 4,
      "max": [
        0.9999000430107117,
        0.9999000430107117
      ],
      "min": [
        9.998001041822135e-05,
        9.998001041822135e-05
      ],
      "type": "VEC2"
    },
    {
      "bufferView": 0,
      "byteOffset": 24,
      "componentType": 5125,
      "count": 6,
      "type": "SCALAR"
    },
    {
      "bufferView": 2,
      "byteOffset": 192,
      "componentType": 5126,
      "count": 248,
      "max": [
        0.33188706636428833,
        0.39634978771209717,
        2.0281949043273926
      ],
      "min": [
        -0.33188706636428833,
        -0.3376011848449707,
        -0.02627718448638916
      ],
      "type": "VEC3"
    },
    {
      "bufferView": 2,
      "byteOffset": 3168,
      "componentType": 5126,
      "count": 248,
      "max": [
        0.9045395851135254,
        0.9045395851135254,
        0.9362293481826782
      ],
      "min": [
        -0.9045395851135254,
        -0.9045395851135254,
        -0.9045395851135254
      ],
      "type": "VEC3"
    },
    {
      "bufferView": 3,
      "componentType": 5126,
      "count": 248,
      "max": [
        0.9534652829170227,
        0.9534652829170227,
        0.9534652829170227,
        1.0
      ],
      "min": [
        -0.9534652829170227,
        -0.9685814380645752,
        -0.9534652829170227,
        1.0
      ],
      "type": "VEC4"
    },
    {
      "bufferView": 1,
      "byteOffset": 64,
      "componentType": 5126,
      "count": 248,
      "max": [
        0.8960914015769958,
        0.9885509610176086
      ],
      "min": [
        0.0006005513714626431,
        0.0006005513714626431
      ],
      "type": "VEC2"
    },
    {
      "bufferView": 0,
      "byteOffset": 48,
      "componentType": 5125,
      "count": 708,
      "type": "SCALAR"
    },
    {
      "bufferView": 2,
      "byteOffset": 6144,
      "componentType": 5126,
      "count": 344,
      "max": [
        0.3148128092288971,
        0.30649539828300476,
        0.1773214340209961
      ],
      "min": [
        -0.355751097202301,
        -0.35152214765548706,
        -0.1885300874710083
      ],
      "type": "VEC3"
    },
    {
      "bufferView": 2,
      "byteOffset": 10272,
      "componentType": 5126,
      "count": 344,
      "max": [
        1.0,
        0.9992343187332153,
        0.9757579565048218
      ],
      "min": [
        -1.0,
        -0.9736005663871765,
        -0.9238803386688232
      ],
      "type": "VEC3"
    },
    {
      "bufferView": 3,
      "byteOffset": 3968,
      "componentType": 5126,
      "count": 344,
      "max": [
        1.0,
        1.0,
        0.7206981182098389,
        1.0
      ],
      "min": [
        -0.9534652829170227,
        -1.0,
        -1.0,
        1.0
      ],
      "type": "VEC4"
    },
    {
      "bufferView": 1,
      "byteOffset": 2048,
      "componentType": 5126,
      "count": 344,
      "max": [
        0.992259681224823,
        0.9963933825492859
      ],
      "min": [
        0.12105804681777954,
        0.004642128944396973
      ],
      "type": "VEC2"
    },
    {
      "bufferView": 0,
      "byteOffset": 2880,
      "componentType": 5125,
      "count": 960,
      "type": "SCALAR"
    },
    {
      "bufferView": 2,
      "byteOffset": 14400,
      "componentType": 5126,
      "count": 344,
      "max": [
        0.3148128092288971,
        0.30649539828300476,
        0.17732155323028564
      ],
      "min": [
        -0.355751097202301,
        -0.35152214765548706,
        -0.18853002786636353
      ],
      "type": "VEC3"
    },
    {
      "bufferView": 2,
      "byteOffset": 18528,
      "componentType": 5126,
      "count": 344,
      "max": [
        1.0,
        0.9992343187332153,
        0.9757579565048218
      ],
      "min": [
        -1.0,
        -0.9736005663871765,
        -0.9238803386688232
      ],
      "type": "VEC3"
    },
    {
      "bufferView": 3,
      "byteOffset": 9472,
      "componentType": 5126,
      "count": 344,
      "max": [
        1.0,
        1.0,
        1.0,
        1.0
      ],
      "min": [
        -0.9534652829170227,
        -1.0,
        -0.9534652829170227,
        1.0
      ],
      "type": "VEC4"
    },
    {
      "bufferView": 1,
      "byteOffset": 4800,
      "componentType": 5126,
      "count": 344,
      "max": [
        0.86151522397995,
        0.9948456883430481
      ],
      "min": [
        0.004084122367203236,
        0.035338595509529114
      ],
      "type": "VEC2"
    },
    {
      "bufferView": 0,
      "byteOffset": 6720,
      "componentType": 5125,
      "count": 960,
      "type": "SCALAR"
    },
    {
      "bufferView": 2,
      "byteOffset": 22656,
      "componentType": 5126,
      "count": 344,
      "max": [
        0.3148128092288971,
        0.30649539828300476,
        0.1773214340209961
      ],
      "min": [
        -0.355751097202301,
        -0.35152214765548706,
        -0.1885300874710083
      ],
      "type": "VEC3"
    },
    {
      "bufferView": 2,
      "byteOffset": 26784,
      "componentType": 5126,
      "count": 344,
      "max": [
        1.0,
        0.9992343187332153,
        0.9757579565048218
      ],
      "min": [
        -1.0,
        -0.9736005663871765,
        -0.9238803386688232
      ],
      "type": "VEC3"
    },
    {
      "bufferView": 3,
      "byteOffset": 14976,
      "componentType": 5126,
      "count": 344,
      "max": [
        1.0,
        1.0,
        0.9851465225219727,
        1.0
      ],
      "min": [
        -0.9534652233123779,
        -1.0,
        -1.0,
        1.0
      ],
      "type": "VEC4"
    },
    {
      "bufferView": 1,
      "byteOffset": 7552,
      "componentType": 5126,
      "count": 344,
      "max": [
        0.9248948097229004,
        0.993292510509491
      ],
      "min": [
        0.12270418554544449,
        0.004445192404091358
      ],
      "type": "VEC2"
    },
    {
      "bufferView": 0,
      "byteOffset": 10560,
      "componentType": 5125,
      "count": 960,
      "type": "SCALAR"
    },
    {
      "bufferView": 2,
      "byteOffset": 30912,
      "componentType": 5126,
      "count": 350,
      "max": [
        0.3148128092288971,
        0.30649539828300476,
        0.17732156813144684
      ],
      "min": [
        -0.355751097202301,
        -0.35152214765548706,
        -0.18852992355823517
      ],
      "type": "VEC3"
    },
    {
      "bufferView": 2,
      "byteOffset": 35112,
      "componentType": 5126,
      "count": 350,
      "max": [
        1.0,
        0.9992343187332153,
        0.9757579565048218
      ],
      "min": [
        -1.0,
        -0.9736005663871765,
        -0.9238803386688232
      ],
      "type": "VEC3"
    },
    {
      "bufferView": 3,
      "byteOffset": 20480,
      "componentType": 5126,
      "count": 350,
      "max": [
        1.0,
        1.0,
        0.9436995387077332,
        1.0
      ],
      "min": [
        -0.9534652829170227,
        -1.0,
        -0.9992343783378601,
        1.0
      ],
      "type": "VEC4"
    },
    {
      "bufferView": 1,
      "byteOffset": 10304,
      "componentType": 5126,
      "count": 350,
      "max": [
        0.9972056746482849,
        0.9949544668197632
      ],
      "min": [
        0.10688865184783936,
        0.034777313470840454
      ],
      "type": "VEC2"
    },
    {
      "bufferView": 0,
      "byteOffset": 14400,
      "componentType": 5125,
      "count": 960,
      "type": "SCALAR"
    },
    {
      "bufferView": 2,
      "byteOffset": 39312,
      "componentType": 5126,
      "count": 348,
      "max": [
        0.3148128092288971,
        0.30649539828300476,
        0.1773214340209961
      ],
      "min": [
        -0.355751097202301,
        -0.35152214765548706,
        -0.1885300874710083
      ],
      "type": "VEC3"
    },
    {
      "bufferView": 2,
      "byteOffset": 43488,
      "componentType": 5126,
      "count": 348,
      "max": [
        1.0,
        0.9992343187332153,
        0.9757579565048218
      ],
      "min": [
        -1.0,
        -0.9736005663871765,
        -0.9238803386688232
      ],
      "type": "VEC3"
    },
    {
      "bufferView": 3,
      "byteOffset": 26080,
      "componentType": 5126,
      "count": 348,
      "max": [
        1.0,
        1.0,
        0.9844822287559509,
        1.0
      ],
      "min": [
        -0.9534652829170227,
        -1.0,
        -1.0,
        1.0
      ],
      "type": "VEC4"
    },
    {
      "bufferView": 1,
      "byteOffset": 13104,
      "componentType": 5126,
      "count": 348,
      "max": [
        0.9882591366767883,
        0.9932926893234253
      ],
      "min": [
        0.006231650710105896,
        0.0035804056096822023
      ],
      "type": "VEC2"
    },
    {
      "bufferView": 0,
      "byteOffset": 18240,
      "componentType": 5125,
      "count": 960,
      "type": "SCALAR"
    },
    {
      "bufferView": 2,
      "byteOffset": 47664,
      "componentType": 5126,
      "count": 248,
      "max": [
        0.33188706636428833,
        0.39634978771209717,
        2.0281949043273926
      ],
      "min": [
        -0.33188706636428833,
        -0.3376011848449707,
        -0.02627718448638916
      ],
      "type": "VEC3"
    },
    {
      "bufferView": 2,
      "byteOffset": 50640,
      "componentType": 5126,
      "count": 248,
      "max": [
        0.9045395851135254,
        0.9045395851135254,
        0.9362293481826782
      ],
      "min": [
        -0.9045395851135254,
        -0.9045395851135254,
        -0.9045395851135254
      ],
      "type": "VEC3"
    },
    {
      "bufferView": 3,
      "byteOffset": 31648,
      "componentType": 5126,
      "count": 248,
      "max": [
        0.9534652829170227,
        0.9534652829170227,
        0.9534652829170227,
        1.0
      ],
      "min": [
        -0.9534652829170227,
        -0.9685814380645752,
        -0.9534652829170227,
        1.0
      ],
      "type": "VEC4"
    },
    {
      "bufferView": 1,
      "byteOffset": 15888,
      "componentType": 5126,
      "count": 248,
      "max": [
        0.8960914015769958,
        0.9885509610176086
      ],
      "min": [
        0.0006005513714626431,
        0.0006005513714626431
      ],
      "type": "VEC2"
    },
    {
      "bufferView": 0,
      "byteOffset": 22080,
      "componentType": 5125,
      "count": 708,
      "type": "SCALAR"
    },
    {
      "bufferView": 2,
      "byteOffset": 53616,
      "componentType": 5126,
      "count": 348,
      "max": [
        0.3148128092288971,
        0.30649539828300476,
        0.1773214340209961
      ],
      "min": [
        -0.355751097202301,
        -0.35152214765548706,
        -0.1885300874710083
      ],
      "type": "VEC3"
    },
    {
      "bufferView": 2,
      "byteOffset": 57792,
      "componentType": 5126,
      "count": 348,
      "max": [
        1.0,
        0.9992343187332153,
        0.9757579565048218
      ],
      "min": [
        -1.0,
        -0.9736005663871765,
        -0.9238803386688232
      ],
      "type": "VEC3"
    },
    {
      "bufferView": 3,
      "byteOffset": 35616,
      "componentType": 5126,
      "count": 348,
      "max": [
        1.0,
        1.0,
        0.9844822287559509,
        1.0
      ],
      "min": [
        -0.9534652829170227,
        -1.0,
        -1.0,
        1.0
      ],
      "type": "VEC4"
    },
    {
      "bufferView": 1,
      "byteOffset": 17872,
      "componentType": 5126,
      "count": 348,
      "max": [
        0.9882591366767883,
        0.9932926893234253
      ],
      "min": [
        0.006231650710105896,
        0.0035804056096822023
      ],
      "type": "VEC2"
    },
    {
      "bufferView": 0,
      "byteOffset": 24912,
      "componentType": 5125,
      "count": 960,
      "type": "SCALAR"
    },
    {
      "bufferView": 2,
      "byteOffset": 61968,
      "componentType": 5126,
      "count": 350,
      "max": [
        0.3148128092288971,
        0.30649539828300476,
        0.17732156813144684
      ],
      "min": [
        -0.355751097202301,
        -0.35152214765548706,
        -0.18852992355823517
      ],
      "type": "VEC3"
    },
    {
      "bufferView": 2,
      "byteOffset": 66168,
      "componentType": 5126,
      "count": 350,
      "max": [
        1.0,
        0.9992343187332153,
        0.9757579565048218
      ],
      "min": [
        -1.0,
        -0.9736005663871765,
        -0.9238803386688232
      ],
      "type": "VEC3"
    },
    {
      "bufferView": 3,
      "byteOffset": 41184,
      "componentType": 5126,
      "count": 350,
      "max": [
        1.0,
        1.0,
        0.9436995387077332,
        1.0
      ],
      "min": [
        -0.9534652829170227,
        -1.0,
        -0.9992343783378601,
        1.0
      ],
      "type": "VEC4"
    },
    {
      "bufferView": 1,
      "byteOffset": 20656,
      "componentType": 5126,
      "count": 350,
      "max": [
        0.9972056746482849,
        0.9949544668197632
      ],
      "min": [
        0.10688865184783936,
        0.034777313470840454
      ],
      "type": "VEC2"
    },
    {
      "bufferView": 0,
      "byteOffset": 28752,
      "componentType": 5125,
      "count": 960,
      "type": "SCALAR"
    },
    {
      "bufferView": 2,
      "byteOffset": 70368,
      "componentType": 5126,
      "count": 344,
      "max": [
        0.3148128092288971,
        0.30649539828300476,
        0.1773214340209961
      ],
      "min": [
        -0.355751097202301,
        -0.35152214765548706,
        -0.1885300874710083
      ],
      "type": "VEC3"
    },
    {
      "bufferView": 2,
      "byteOffset": 74496,
      "componentType": 5126,
      "count": 344,
      "max": [
        1.0,
        0.9992343187332153,
        0.9757579565048218
      ],
      "min": [
        -1.0,
        -0.9736005663871765,
        -0.9238803386688232
      ],
      "type": "VEC3"
    },
    {
      "bufferView": 3,
      "byteOffset": 46784,
      "componentType": 5126,
      "count": 344,
      "max": [
        1.0,
        1.0,
        0.9851465225219727,
        1.0
      ],
      "min": [
        -0.9534652233123779,
        -1.0,
        -1.0,
        1.0
      ],
      "type": "VEC4"
    },
    {
      "bufferView": 1,
      "byteOffset": 23456,
      "componentType": 5126,
      "count": 344,
      "max": [
        0.9248948097229004,
        0.993292510509491
      ],
      "min": [
        0.12270418554544449,
        0.004445192404091358
      ],
      "type": "VEC2"
    },
    {
      "bufferView": 0,
      "byteOffset": 32592,
      "componentType": 5125,
      "count": 960,
      "type": "SCALAR"
    },
    {
      "bufferView": 2,
      "byteOffset": 78624,
      "componentType": 5126,
      "count": 344,
      "max": [
        0.3148128092288971,
        0.30649539828300476,
        0.17732155323028564
      ],
      "min": [
        -0.355751097202301,
        -0.35152214765548706,
        -0.18853002786636353
      ],
      "type": "VEC3"
    },
    {
      "bufferView": 2,
      "byteOffset": 82752,
      "componentType": 5126,
      "count": 344,
      "max": [
        1.0,
        0.9992343187332153,
        0.9757579565048218
      ],
      "min": [
        -1.0,
        -0.9736005663871765,
        -0.9238803386688232
      ],
      "type": "VEC3"
    },
    {
      "bufferView": 3,
      "byteOffset": 52288,
      "componentType": 5126,
      "count": 344,
      "max": [
        1.0,
        1.0,
        1.0,
        1.0
      ],
      "min": [
        -0.9534652829170227,
        -1.0,
        -0.9534652829170227,
        1.0
      ],
      "type": "VEC4"
    },
    {
      "bufferView": 1,
      "byteOffset": 26208,
      "componentType": 5126,
      "count": 344,
      "max": [
        0.86151522397995,
        0.9948456883430481
      ],
      "min": [
        0.004084122367203236,
        0.035338595509529114
      ],
      "type": "VEC2"
    },
    {
      "bufferView": 0,
      "byteOffset": 36432,
      "componentType": 5125,
      "count": 960,
      "type": "SCALAR"
    },
    {
      "bufferView": 2,
      "byteOffset": 86880,
      "componentType": 5126,
      "count": 344,
      "max": [
        0.3148128092288971,
        0.30649539828300476,
        0.1773214340209961
      ],
      "min": [
        -0.355751097202301,
        -0.35152214765548706,
        -0.1885300874710083
      ],
      "type": "VEC3"
    },
    {
      "bufferView": 2,
      "byteOffset": 91008,
      "componentType": 5126,
      "count": 344,
      "max": [
        1.0,
        0.9992343187332153,
        0.9757579565048218
      ],
      "min": [
        -1.0,
        -0.9736005663871765,
        -0.9238803386688232
      ],
      "type": "VEC3"
    },
    {
      "bufferView": 3,
      "byteOffset": 57792,
      "componentType": 5126,
      "count": 344,
      "max": [
        1.0,
        1.0,
        0.7206981182098389,
        1.0
      ],
      "min": [
        -0.9534652829170227,
        -1.0,
        -1.0,
        1.0
      ],
      "type": "VEC4"
    },
    {
      "bufferView": 1,
      "byteOffset": 28960,
      "componentType": 5126,
      "count": 344,
      "max": [
        0.992259681224823,
        0.9963933825492859
      ],
      "min": [
        0.12105804681777954,
        0.004642128944396973
      ],
      "type": "VEC2"
    },
    {
      "bufferView": 0,
      "byteOffset": 40272,
      "componentType": 5125,
      "count": 960,
      "type": "SCALAR"
    },
    {
      "bufferView": 2,
      "byteOffset": 95136,
      "componentType": 5126,
      "count": 248,
      "max": [
        0.33188706636428833,
        0.39634978771209717,
        2.0281949043273926
      ],
      "min": [
        -0.33188706636428833,
        -0.3376011848449707,
        -0.02627718448638916
      ],
      "type": "VEC3"
    },
    {
      "bufferView": 2,
      "byteOffset": 98112,
      "componentType": 5126,
      "count": 248,
      "max": [
        0.9045395851135254,
        0.9045395851135254,
        0.9362293481826782
      ],
      "min": [
        -0.9045395851135254,
        -0.9045395851135254,
        -0.9045395851135254
      ],
      "type": "VEC3"
    },
    {
      "bufferView": 3,
      "byteOffset": 63296,
      "componentType": 5126,
      "count": 248,
      "max": [
        0.9534652829170227,
        0.9534652829170227,
        0.9534652829170227,
        1.0
      ],
      "min": [
        -0.9534652829170227,
        -0.9685814380645752,
        -0.9534652829170227,
        1.0
      ],
      "type": "VEC4"
    },
    {
      "bufferView": 1,
      "byteOffset": 31712,
      "componentType": 5126,
      "count": 248,
      "max": [
        0.8960914015769958,
        0.9885509610176086
      ],
      "min": [
        0.0006005513714626431,
        0.0006005513714626431
      ],
      "type": "VEC2"
    },
    {
      "bufferView": 0,
      "byteOffset": 44112,
      "componentType": 5125,
      "count": 708,
      "type": "SCALAR"
    },
    {
      "bufferView": 2,
      "byteOffset": 101088,
      "componentType": 5126,
      "count": 344,
      "max": [
        0.3148128092288971,
        0.30649539828300476,
        0.1773214340209961
      ],
      "min": [
        -0.355751097202301,
        -0.35152214765548706,
        -0.1885300874710083
      ],
      "type": "VEC3"
    },
    {
      "bufferView": 2,
      "byteOffset": 105216,
      "componentType": 5126,
      "count": 344,
      "max": [
        1.0,
        0.9992343187332153,
        0.9757579565048218
      ],
      "min": [
        -1.0,
        -0.9736005663871765,
        -0.9238803386688232
      ],
      "type": "VEC3"
    },
    {
      "bufferView": 3,
      "byteOffset": 67264,
      "componentType": 5126,
      "count": 344,
      "max": [
        1.0,
        1.0,
        0.7206981182098389,
        1.0
      ],
      "min": [
        -0.9534652829170227,
        -1.0,
        -1.0,
        1.0
      ],
      "type": "VEC4"
    },
    {
      "bufferView": 1,
      "byteOffset": 33696,
      "componentType": 5126,
      "count": 344,
      "max": [
        0.992259681224823,
        0.9963933825492859
      ],
      "min": [
        0.12105804681777954,
        0.004642128944396973
      ],
      "type": "VEC2"
    },
    {
      "bufferView": 0,
      "byteOffset": 46944,
      "componentType": 5125,
      "count": 960,
      "type": "SCALAR"
    },
    {
      "bufferView": 2,
      "byteOffset": 109344,
      "componentType": 5126,
      "count": 344,
      "max": [
        0.3148128092288971,
        0.30649539828300476,
        0.17732155323028564
      ],
      "min": [
        -0.355751097202301,
        -0.35152214765548706,
        -0.18853002786636353
      ],
      "type": "VEC3"
    },
    {
      "bufferView": 2,
      "byteOffset": 113472,
      "componentType": 5126,
      "count": 344,
      "max": [
        1.0,
        0.9992343187332153,
        0.9757579565048218
      ],
      "min": [
        -1.0,
        -0.9736005663871765,
        -0.9238803386688232
      ],
      "type": "VEC3"
    },
    {
      "bufferView": 3,
      "byteOffset": 72768,
      "componentType": 5126,
      "count": 344,
      "max": [
        1.0,
        1.0,
        1.0,
        1.0
      ],
      "min": [
        -0.9534652829170227,
        -1.0,
        -0.9534652829170227,
        1.0
      ],
      "type": "VEC4"
    },
    {
      "bufferView": 1,
      "byteOffset": 36448,
      "componentType": 5126,
      "count": 344,
      "max": [
        0.86151522397995,
        0.9948456883430481
      ],
      "min": [
        0.004084122367203236,
        0.035338595509529114
      ],
      "type": "VEC2"
    },
    {
      "bufferView": 0,
      "byteOffset": 50784,
      "componentType": 5125,
      "count": 960,
      "type": "SCALAR"
    },
    {
      "bufferView": 2,
      "byteOffset": 117600,
      "componentType": 5126,
      "count": 344,
      "max": [
        0.3148128092288971,
        0.30649539828300476,
        0.1773214340209961
      ],
      "min": [
        -0.355751097202301,
        -0.35152214765548706,
        -0.1885300874710083
      ],
      "type": "VEC3"
    },
    {
      "bufferView": 2,
      "byteOffset": 121728,
      "componentType": 5126,
      "count": 344,
      "max": [
        1.0,
        0.9992343187332153,
        0.9757579565048218
      ],
      "min": [
        -1.0,
        -0.9736005663871765,
        -0.9238803386688232
      ],
      "type": "VEC3"
    },
    {
      "bufferView": 3,
      "byteOffset": 78272,
      "componentType": 5126,
      "count": 344,
      "max": [
        1.0,
        1.0,
        0.9851465225219727,
        1.0
      ],
      "min": [
        -0.9534652233123779,
        -1.0,
        -1.0,
        1.0
      ],
      "type": "VEC4"
    },
    {
      "bufferView": 1,
      "byteOffset": 39200,
      "componentType": 5126,
      "count": 344,
      "max": [
        0.9248948097229004,
        0.993292510509491
      ],
      "min": [
        0.12270418554544449,
        0.004445192404091358
      ],
      "type": "VEC2"
    },
    {
      "bufferView": 0,
      "byteOffset": 54624,
      "componentType": 5125,
      "count": 960,
      "type": "SCALAR"
    },
    {
      "bufferView": 2,
      "byteOffset": 125856,
      "componentType": 5126,
      "count": 350,
      "max": [
        0.3148128092288971,
        0.30649539828300476,
        0.17732156813144684
      ],
      "min": [
        -0.355751097202301,
        -0.35152214765548706,
        -0.18852992355823517
      ],
      "type": "VEC3"
    },
    {
      "bufferView": 2,
      "byteOffset": 130056,
      "componentType": 5126,
      "count": 350,
      "max": [
        1.0,
        0.9992343187332153,
        0.9757579565048218
      ],
      "min": [
        -1.0,
        -0.9736005663871765,
        -0.9238803386688232
      ],
      "type": "VEC3"
    },
    {
      "bufferView": 3,
      "byteOffset": 83776,
      "componentType": 5126,
      "count": 350,
      "max": [
        1.0,
        1.0,
        0.9436995387077332,
        1.0
      ],
      "min": [
        -0.9534652829170227,
        -1.0,
        -0.9992343783378601,
        1.0
      ],
      "type": "VEC4"
    },
    {
      "bufferView": 1,
      "byteOffset": 41952,
      "componentType": 5126,
      "count": 350,
      "max": [
        0.9972056746482849,
        0.9949544668197632
      ],
      "min": [
        0.10688865184783936,
        0.034777313470840454
      ],
      "type": "VEC2"
    },
    {
      "bufferView": 0,
      "byteOffset": 58464,
      "componentType": 5125,
      "count": 960,
      "type": "SCALAR"
    },
    {
      "bufferView": 2,
      "byteOffset": 134256,
      "componentType": 5126,
      "count": 348,
      "max": [
        0.3148128092288971,
        0.30649539828300476,
        0.1773214340209961
      ],
      "min": [
        -0.355751097202301,
        -0.35152214765548706,
        -0.1885300874710083
      ],
      "type": "VEC3"
    },
    {
      "bufferView": 2,
      "byteOffset": 138432,
      "componentType": 5126,
      "count": 348,
      "max": [
        1.0,
        0.9992343187332153,
        0.9757579565048218
      ],
      "min": [
        -1.0,
        -0.9736005663871765,
        -0.9238803386688232
      ],
      "type": "VEC3"
    },
    {
      "bufferView": 3,
      "byteOffset": 89376,
      "componentType": 5126,
      "count": 348,
      "max": [
        1.0,
        1.0,
        0.9844822287559509,
        1.0
      ],
      "min": [
        -0.9534652829170227,
        -1.0,
        -1.0,
        1.0
      ],
      "type": "VEC4"
    },
    {
      "bufferView": 1,
      "byteOffset": 44752,
      "componentType": 5126,
      "count": 348,
      "max": [
        0.9882591366767883,
        0.9932926893234253
      ],
      "min": [
        0.006231650710105896,
        0.0035804056096822023
      ],
      "type": "VEC2"
    },
    {
      "bufferView": 0,
      "byteOffset": 62304,
      "componentType": 5125,
      "count": 960,
      "type": "SCALAR"
    },
    {
      "bufferView": 2,
      "byteOffset": 142608,
      "componentType": 5126,
      "count": 4,
      "max": [
        1.0,
        1.0,
        0.0
      ],
      "min": [
        -1.0,
        -1.0,
        0.0
      ],
      "type": "VEC3"
    },
    {
      "bufferView": 2,
      "byteOffset": 142656,
      "componentType": 5126,
      "count": 4,
      "max": [
        0.0,
        0.0,
        1.0
      ],
      "min": [
        0.0,
        0.0,
        1.0
      ],
      "type": "VEC3"
    },
    {
      "bufferView": 1,
      "byteOffset": 47536,
      "componentType": 5126,
      "count": 4,
      "max": [
        0.9999000430107117,
        0.9999000430107117
      ],
      "min": [
        9.998001041822135e-05,
        9.998001041822135e-05
      ],
      "type": "VEC2"
    },
    {
      "bufferView": 0,
      "byteOffset": 66144,
      "componentType": 5125,
      "count": 6,
      "type": "SCALAR"
    },
    {
      "bufferView": 2,
      "byteOffset": 142704,
      "componentType": 5126,
      "count": 4,
      "max": [
        1.0,
        1.0,
        0.0
      ],
      "min": [
        -1.0,
        -1.0,
        0.0
      ],
      "type": "VEC3"
    },
    {
      "bufferView": 2,
      "byteOffset": 142752,
      "componentType": 5126,
      "count": 4,
      "max": [
        0.0,
        0.0,
        1.0
      ],
      "min": [
        0.0,
        0.0,
        1.0
      ],
      "type": "VEC3"
    },
    {
      "bufferView": 1,
      "byteOffset": 47568,
      "componentType": 5126,
      "count": 4,
      "max": [
        0.9999000430107117,
        0.9999000430107117
      ],
      "min": [
        9.998001041822135e-05,
        9.998001041822135e-05
      ],
      "type": "VEC2"
    },
    {
      "bufferView": 0,
      "byteOffset": 66168,
      "componentType": 5125,
      "count": 6,
      "type": "SCALAR"
    },
    {
      "bufferView": 2,
      "byteOffset": 142800,
      "componentType": 5126,
      "count": 4,
      "max": [
        1.0,
        1.0,
        0.0
      ],
      "min": [
        -1.0,
        -1.0,
        0.0
      ],
      "type": "VEC3"
    },
    {
      "bufferView": 2,
      "byteOffset": 142848,
      "componentType": 5126,
      "count": 4,
      "max": [
        0.0,
        0.0,
        1.0
      ],
      "min": [
        0.0,
        0.0,
        1.0
      ],
      "type": "VEC3"
    },
    {
      "bufferView": 1,
      "byteOffset": 47600,
      "componentType": 5126,
      "count": 4,
      "max": [
        0.9999000430107117,
        0.9999000430107117
      ],
      "min": [
        9.998001041822135e-05,
        9.998001041822135e-05
      ],
      "type": "VEC2"
    },
    {
      "bufferView": 0,
      "byteOffset": 66192,
      "componentType": 5125,
      "count": 6,
      "type": "SCALAR"
    },
    {
      "bufferView": 2,
      "byteOffset": 142896,
      "componentType": 5126,
      "count": 4,
      "max": [
        1.0,
        1.0,
        0.0
      ],
      "min": [
        -1.0,
        -1.0,
        0.0
      ],
      "type": "VEC3"
    },
    {
      "bufferView": 2,
      "byteOffset": 142944,
      "componentType": 5126,
      "count": 4,
      "max": [
        0.0,
        0.0,
        1.0
      ],
      "min": [
        0.0,
        0.0,
        1.0
      ],
      "type": "VEC3"
    },
    {
      "bufferView": 1,
      "byteOffset": 47632,
      "componentType": 5126,
      "count": 4,
      "max": [
        0.9999000430107117,
        0.9999000430107117
      ],
      "min": [
        9.998001041822135e-05,
        9.998001041822135e-05
      ],
      "type": "VEC2"
    },
    {
      "bufferView": 0,
      "byteOffset": 66216,
      "componentType": 5125,
      "count": 6,
      "type": "SCALAR"
    },
    {
      "bufferView": 2,
      "byteOffset": 142992,
      "componentType": 5126,
      "count": 4,
      "max": [
        1.0,
        1.0,
        0.0
      ],
      "min": [
        -1.0,
        -1.0,
        0.0
      ],
      "type": "VEC3"
    },
    {
      "bufferView": 2,
      "byteOffset": 143040,
      "componentType": 5126,
      "count": 4,
      "max": [
        0.0,
        0.0,
        1.0
      ],
      "min": [
        0.0,
        0.0,
        1.0
      ],
      "type": "VEC3"
    },
    {
      "bufferView": 3,
      "byteOffset": 94944,
      "componentType": 5126,
      "count": 4,
      "max": [
        1.0,
        0.0,
        0.0,
        1.0
      ],
      "min": [
        1.0,
        0.0,
        0.0,
        1.0
      ],
      "type": "VEC4"
    },
    {
      "bufferView": 1,
      "byteOffset": 47664,
      "componentType": 5126,
      "count": 4,
      "max": [
        0.9999000430107117,
        0.9999000430107117
      ],
      "min": [
        9.998001041822135e-05,
        9.998001041822135e-05
      ],
      "type": "VEC2"
    },
    {
      "bufferView": 0,
      "byteOffset": 66240,
      "componentType": 5125,
      "count": 6,
      "type": "SCALAR"
    },
    {
      "bufferView": 2,
      "byteOffset": 143088,
      "componentType": 5126,
      "count": 248,
      "max": [
        0.33188706636428833,
        0.39634978771209717,
        2.0281949043273926
      ],
      "min": [
        -0.33188706636428833,
        -0.3376011848449707,
        -0.02627718448638916
      ],
      "type": "VEC3"
    },
    {
      "bufferView": 2,
      "byteOffset": 146064,
      "componentType": 5126,
      "count": 248,
      "max": [
        0.9045395851135254,
        0.9045395851135254,
        0.9362293481826782
      ],
      "min": [
        -0.9045395851135254,
        -0.9045395851135254,
        -0.9045395851135254
      ],
      "type": "VEC3"
    },
    {
      "bufferView": 3,
      "byteOffset": 95008,
      "componentType": 5126,
      "count": 248,
      "max": [
        0.9534652829170227,
        0.9534652829170227,
        0.9534652829170227,
        1.0
      ],
      "min": [
        -0.9534652829170227,
        -0.9685814380645752,
        -0.9534652829170227,
        1.0
      ],
      "type": "VEC4"
    },
    {
      "bufferView": 1,
      "byteOffset": 47696,
      "componentType": 5126,
      "count": 248,
      "max": [
        0.8960914015769958,
        0.9885509610176086
      ],
      "min": [
        0.0006005513714626431,
        0.0006005513714626431
      ],
      "type": "VEC2"
    },
    {
      "bufferView": 0,
      "byteOffset": 66264,
      "componentType": 5125,
      "count": 708,
      "type": "SCALAR"
    },
    {
      "bufferView": 2,
      "byteOffset": 149040,
      "componentType": 5126,
      "count": 348,
      "max": [
        0.3148128092288971,
        0.30649539828300476,
        0.1773214340209961
      ],
      "min": [
        -0.355751097202301,
        -0.35152214765548706,
        -0.1885300874710083
      ],
      "type": "VEC3"
    },
    {
      "bufferView": 2,
      "byteOffset": 153216,
      "componentType": 5126,
      "count": 348,
      "max": [
        1.0,
        0.9992343187332153,
        0.9757579565048218
      ],
      "min": [
        -1.0,
        -0.9736005663871765,
        -0.9238803386688232
      ],
      "type": "VEC3"
    },
    {
      "bufferView": 3,
      "byteOffset": 98976,
      "componentType": 5126,
      "count": 348,
      "max": [
        1.0,
        1.0,
        0.9844822287559509,
        1.0
      ],
      "min": [
        -0.9534652829170227,
        -1.0,
        -1.0,
        1.0
      ],
      "type": "VEC4"
    },
    {
      "bufferView": 1,
      "byteOffset": 49680,
      "componentType": 5126,
      "count": 348,
      "max": [
        0.9882591366767883,
        0.9932926893234253
      ],
      "min": [
        0.006231650710105896,
        0.0035804056096822023
      ],
      "type": "VEC2"
    },
    {
      "bufferView": 0,
      "byteOffset": 69096,
      "componentType": 5125,
      "count": 960,
      "type": "SCALAR"
    },
    {
      "bufferView": 2,
      "byteOffset": 157392,
      "componentType": 5126,
      "count": 350,
      "max": [
        0.3148128092288971,
        0.30649539828300476,
        0.17732156813144684
      ],
      "min": [
        -0.355751097202301,
        -0.35152214765548706,
        -0.18852992355823517
      ],
      "type": "VEC3"
    },
    {
      "bufferView": 2,
      "byteOffset": 161592,
      "componentType": 5126,
      "count": 350,
      "max": [
        1.0,
        0.9992343187332153,
        0.9757579565048218
      ],
      "min": [
        -1.0,
        -0.9736005663871765,
        -0.9238803386688232
      ],
      "type": "VEC3"
    },
    {
      "bufferView": 3,
      "byteOffset": 104544,
      "componentType": 5126,
      "count": 350,
      "max": [
        1.0,
        1.0,
        0.9436995387077332,
        1.0
      ],
      "min": [
        -0.9534652829170227,
        -1.0,
        -0.9992343783378601,
        1.0
      ],
      "type": "VEC4"
    },
    {
      "bufferView": 1,
      "byteOffset": 52464,
      "componentType": 5126,
      "count": 350,
      "max": [
        0.9972056746482849,
        0.9949544668197632
      ],
      "min": [
        0.10688865184783936,
        0.034777313470840454
      ],
      "type": "VEC2"
    },
    {
      "bufferView": 0,
      "byteOffset": 72936,
      "componentType": 5125,
      "count": 960,
      "type": "SCALAR"
    },
    {
      "bufferView": 2,
      "byteOffset": 165792,
      "componentType": 5126,
      "count": 344,
      "max": [
        0.3148128092288971,
        0.30649539828300476,
        0.1773214340209961
      ],
      "min": [
        -0.355751097202301,
        -0.35152214765548706,
        -0.1885300874710083
      ],
      "type": "VEC3"
    },
    {
      "bufferView": 2,
      "byteOffset": 169920,
      "componentType": 5126,
      "count": 344,
      "max": [
        1.0,
        0.9992343187332153,
        0.9757579565048218
      ],
      "min": [
        -1.0,
        -0.9736005663871765,
        -0.9238803386688232
      ],
      "type": "VEC3"
    },
    {
      "bufferView": 3,
      "byteOffset": 110144,
      "componentType": 5126,
      "count": 344,
      "max": [
        1.0,
        1.0,
        0.9851465225219727,
        1.0
      ],
      "min": [
        -0.9534652233123779,
        -1.0,
        -1.0,
        1.0
      ],
      "type": "VEC4"
    },
    {
      "bufferView": 1,
      "byteOffset": 55264,
      "componentType": 5126,
      "count": 344,
      "max": [
        0.9248948097229004,
        0.993292510509491
      ],
      "min": [
        0.12270418554544449,
        0.004445192404091358
      ],
      "type": "VEC2"
    },
    {
      "bufferView": 0,
      "byteOffset": 76776,
      "componentType": 5125,
      "count": 960,
      "type": "SCALAR"
    },
    {
      "bufferView": 2,
      "byteOffset": 174048,
      "componentType": 5126,
      "count": 344,
      "max": [
        0.3148128092288971,
        0.30649539828300476,
        0.17732155323028564
      ],
      "min": [
        -0.355751097202301,
        -0.35152214765548706,
        -0.18853002786636353
      ],
      "type": "VEC3"
    },
    {
      "bufferView": 2,
      "byteOffset": 178176,
      "componentType": 5126,
      "count": 344,
      "max": [
        1.0,
        0.9992343187332153,
        0.9757579565048218
      ],
      "min": [
        -1.0,
        -0.9736005663871765,
        -0.9238803386688232
      ],
      "type": "VEC3"
    },
    {
      "bufferView": 3,
      "byteOffset": 115648,
      "componentType": 5126,
      "count": 344,
      "max": [
        1.0,
        1.0,
        1.0,
        1.0
      ],
      "min": [
        -0.9534652829170227,
        -1.0,
        -0.9534652829170227,
        1.0
      ],
      "type": "VEC4"
    },
    {
      "bufferView": 1,
      "byteOffset": 58016,
      "componentType": 5126,
      "count": 344,
      "max": [
        0.86151522397995,
        0.9948456883430481
      ],
      "min": [
        0.004084122367203236,
        0.035338595509529114
      ],
      "type": "VEC2"
    },
    {
      "bufferView": 0,
      "byteOffset": 80616,
      "componentType": 5125,
      "count": 960,
      "type": "SCALAR"
    },
    {
      "bufferView": 2,
      "byteOffset": 182304,
      "componentType": 5126,
      "count": 344,
      "max": [
        0.3148128092288971,
        0.30649539828300476,
        0.1773214340209961
      ],
      "min": [
        -0.355751097202301,
        -0.35152214765548706,
        -0.1885300874710083
      ],
      "type": "VEC3"
    },
    {
      "bufferView": 2,
      "byteOffset": 186432,
      "componentType": 5126,
      "count": 344,
      "max": [
        1.0,
        0.9992343187332153,
        0.9757579565048218
      ],
      "min": [
        -1.0,
        -0.9736005663871765,
        -0.9238803386688232
      ],
      "type": "VEC3"
    },
    {
      "bufferView": 3,
      "byteOffset": 121152,
      "componentType": 5126,
      "count": 344,
      "max": [
        1.0,
        1.0,
        0.7206981182098389,
        1.0
      ],
      "min": [
        -0.9534652829170227,
        -1.0,
        -1.0,
        1.0
      ],
      "type": "VEC4"
    },
    {
      "bufferView": 1,
      "byteOffset": 60768,
      "componentType": 5126,
      "count": 344,
      "max": [
        0.992259681224823,
        0.9963933825492859
      ],
      "min": [
        0.12105804681777954,
        0.004642128944396973
      ],
      "type": "VEC2"
    },
    {
      "bufferView": 0,
      "byteOffset": 84456,
      "componentType": 5125,
      "count": 960,
      "type": "SCALAR"
    }
  ],
  "asset": {
    "extras": {
      "author": "TooManyDemons (https://sketchfab.com/toomanydemons)",
      "license": "CC-BY-4.0 (http://creativecommons.org/licenses/by/4.0/)",
      "source": "https://sketchfab.com/3d-models/filing-cabinets-7ef1ca295ff14af2abcbe0ae0168a241",
      "title": "Filing Cabinets"
    },
    "generator": "Sketchfab-12.66.0",
    "version": "2.0"
  },
  "bufferViews": [
    {
      "buffer": 0,
      "byteLength": 88296,
      "name": "floatBufferViews",
      "target": 34963
    },
    {
      "buffer": 0,
      "byteLength": 63520,
      "byteOffset": 88296,
      "byteStride": 8,
      "name": "floatBufferViews",
      "target": 34962
    },
    {
      "buffer": 0,
      "byteLength": 190560,
      "byteOffset": 151816,
      "byteStride": 12,
      "name": "floatBufferViews",
      "target": 34962
    },
    {
      "buffer": 0,
      "byteLength": 126656,
      "byteOffset": 342376,
      "byteStride": 16,
      "name": "floatBufferViews",
      "target": 34962
    }
  ],
  "buffers": [
    {
      "byteLength": 469032,
      "uri": "scene.bin"
    }
  ],
  "images": [
    {
      "uri": "textures/RootNode_baseColor.jpeg"
    },
    {
      "uri": "textures/RootNode_metallicRoughness.png"
    },
    {
      "uri": "textures/RootNode_normal.png"
    },
    {
      "uri": "textures/Papers_4_baseColor.png"
    },
    {
      "uri": "textures/Papers_2_baseColor.png"
    },
    {
      "uri": "textures/MAT_FilingCabinet_baseColor.png"
    },
    {
      "uri": "textures/MAT_FilingCabinet_metallicRoughness.png"
    },
    {
      "uri": "textures/MAT_FilingCabinet_normal.png"
    },
    {
      "uri": "textures/Papers_3_baseColor.png"
    },
    {
      "uri": "textures/Papers_baseColor.png"
    }
  ],
  "materials": [
    {
      "doubleSided": true,
      "name": "RootNode",
      "normalTexture": {
        "index": 2
      },
      "pbrMetallicRoughness": {
        "baseColorTexture": {
          "index": 0
        },
        "metallicRoughnessTexture": {
          "index": 1
        }
      }
    },
    {
      "alphaMode": "BLEND",
      "doubleSided": true,
      "name": "Papers_4",
      "pbrMetallicRoughness": {
        "baseColorTexture": {
          "index": 3
        },
        "metallicFactor": 0.0,
        "roughnessFactor": 0.6
      }
    },
    {
      "alphaMode": "BLEND",
      "doubleSided": true,
      "name": "Papers_2",
      "pbrMetallicRoughness": {
        "baseColorTexture": {
          "index": 4
        },
        "metallicFactor": 0.0,
        "roughnessFactor": 0.6
      }
    },
    {
      "doubleSided": true,
      "name": "MAT_FilingCabinet",
      "normalTexture": {
        "index": 7
      },
      "occlusionTexture": {
        "index": 6
      },
      "pbrMetallicRoughness": {
        "baseColorTexture": {
          "index": 5
        },
        "metallicRoughnessTexture": {
          "index": 6
        }
      }
    },
    {
      "alphaMode": "BLEND",
      "doubleSided": true,
      "name": "Papers_3",
      "pbrMetallicRoughness": {
        "baseColorTexture": {
          "index": 8
        },
        "metallicFactor": 0.0,
        "roughnessFactor": 0.6
      }
    },
    {
      "alphaMode": "BLEND",
      "doubleSided": true,
      "name": "Papers",
      "pbrMetallicRoughness": {
        "baseColorTexture": {
          "index": 9
        },
        "metallicFactor": 0.0,
        "roughnessFactor": 0.6
      }
    }
  ],
  "meshes": [
    {
      "name": "Plane.006_Papers 4_0",
      "primitives": [
        {
          "attributes": {
            "NORMAL": 1,
            "POSITION": 0,
            "TEXCOORD_0": 2
          },
          "indices": 3,
          "material": 1,
          "mode": 4
        }
      ]
    },
    {
      "name": "Plane.005_Papers 2_0",
      "primitives": [
        {
          "attributes": {
            "NORMAL": 5,
            "POSITION": 4,
            "TEXCOORD_0": 6
          },
          "indices": 7,
          "material": 2,
          "mode": 4
        }
      ]
    },
    {
      "name": "bakeObject.065_low.005_MAT_FilingCabinet_0",
      "primitives": [
        {
          "attributes": {
            "NORMAL": 9,
            "POSITION": 8,
            "TANGENT": 10,
            "TEXCOORD_0": 11
          },
          "indices": 12,
          "material": 3,
          "mode": 4
        }
      ]
    },
    {
      "name": "bakeObject.005_low.005_MAT_FilingCabinet_0",
      "primitives": [
        {
          "attributes": {
            "NORMAL": 14,
            "POSITION": 13,
            "TANGENT": 15,
            "TEXCOORD_0": 16
          },
          "indices": 17,
          "material": 3,
          "mode": 4
        }
      ]
    },
    {
      "name": "bakeObject.006_low.005_MAT_FilingCabinet_0",
      "primitives": [
        {
          "attributes": {
            "NORMAL": 19,
            "POSITION": 18,
            "TANGENT": 20,
            "TEXCOORD_0": 21
          },
          "indices": 22,
          "material": 3,
          "mode": 4
        }
      ]
    },
    {
      "name": "bakeObject.007_low.005_MAT_FilingCabinet_0",
      "primitives": [
        {
          "attributes": {
            "NORMAL": 24,
            "POSITION": 23,
            "TANGENT": 25,
            "TEXCOORD_0": 26
          },
          "indices": 27,
          "material": 3,
          "mode": 4
        }
      ]
    },
    {
      "name": "bakeObject.008_low.005_MAT_FilingCabinet_0",
      "primitives": [
        {
          "attributes": {
            "NORMAL": 29,
            "POSITION": 28,
            "TANGENT": 30,
            "TEXCOORD_0": 31
          },
          "indices": 32,
          "material": 3,
          "mode": 4
        }
      ]
    },
    {
      "name": "bakeObject.009_low.005_MAT_FilingCabinet_0",
      "primitives": [
        {
          "attributes": {
            "NORMAL": 34,
            "POSITION": 33,
            "TANGENT": 35,
            "TEXCOORD_0": 36
          },
          "indices": 37,
          "material": 3,
          "mode": 4
        }
      ]
    },
    {
      "name": "bakeObject.065_low.004_MAT_FilingCabinet_0",
      "primitives": [
        {
          "attributes": {
            "NORMAL": 39,
            "POSITION": 38,
            "TANGENT": 40,
            "TEXCOORD_0": 41
          },
          "indices": 42,
          "material": 3,
          "mode": 4
        }
      ]
    },
    {
      "name": "bakeObject.009_low.004_MAT_FilingCabinet_0",
      "primitives": [
        {
          "attributes": {
            "NORMAL": 44,
            "POSITION": 43,
            "TANGENT": 45,
            "TEXCOORD_0": 46
          },
          "indices": 47,
          "material": 3,
          "mode": 4
        }
      ]
    },
    {
      "name": "bakeObject.008_low.004_MAT_FilingCabinet_0",
      "primitives": [
        {
          "attributes": {
            "NORMAL": 49,
            "POSITION": 48,
            "TANGENT": 50,
            "TEXCOORD_0": 51
          },
          "indices": 52,
          "material": 3,
          "mode": 4
        }
      ]
    },
    {
      "name": "bakeObject.007_low.004_MAT_FilingCabinet_0",
      "primitives": [
        {
          "attributes": {
            "NORMAL": 54,
            "POSITION": 53,
            "TANGENT": 55,
            "TEXCOORD_0": 56
          },
          "indices": 57,
          "material": 3,
          "mode": 4
        }
      ]
    },
    {
      "name": "bakeObject.006_low.004_MAT_FilingCabinet_0",
      "primitives": [
        {
          "attributes": {
            "NORMAL": 59,
            "POSITION": 58,
            "TANGENT": 60,
            "TEXCOORD_0": 61
          },
          "indices": 62,
          "material": 3,
          "mode": 4
        }
      ]
    },
    {
      "name": "bakeObject.005_low.004_MAT_FilingCabinet_0",
      "primitives": [
        {
          "attributes": {
            "NORMAL": 64,
            "POSITION": 63,
            "TANGENT": 65,
            "TEXCOORD_0": 66
          },
          "indices": 67,
          "material": 3,
          "mode": 4
        }
      ]
    },
    {
      "name": "bakeObject.065_low.003_MAT_FilingCabinet_0",
      "primitives": [
        {
          "attributes": {
            "NORMAL": 69,
            "POSITION": 68,
            "TANGENT": 70,
            "TEXCOORD_0": 71
          },
          "indices": 72,
          "material": 3,
          "mode": 4
        }
      ]
    },
    {
      "name": "bakeObject.005_low.003_MAT_FilingCabinet_0",
      "primitives": [
        {
          "attributes": {
            "NORMAL": 74,
            "POSITION": 73,
            "TANGENT": 75,
            "TEXCOORD_0": 76
          },
          "indices": 77,
          "material": 3,
          "mode": 4
        }
      ]
    },
    {
      "name": "bakeObject.006_low.003_MAT_FilingCabinet_0",
      "primitives": [
        {
          "attributes": {
            "NORMAL": 79,
            "POSITION": 78,
            "TANGENT": 80,
            "TEXCOORD_0": 81
          },
          "indices": 82,
          "material": 3,
          "mode": 4
        }
      ]
    },
    {
      "name": "bakeObject.007_low.003_MAT_FilingCabinet_0",
      "primitives": [
        {
          "attributes": {
            "NORMAL": 84,
            "POSITION": 83,
            "TANGENT": 85,
            "TEXCOORD_0": 86
          },
          "indices": 87,
          "material": 3,
          "mode": 4
        }
      ]
    },
    {
      "name": "bakeObject.008_low.003_MAT_FilingCabinet_0",
      "primitives": [
        {
          "attributes": {
            "NORMAL": 89,
            "POSITION": 88,
            "TANGENT": 90,
            "TEXCOORD_0": 91
          },
          "indices": 92,
          "material": 3,
          "mode": 4
        }
      ]
    },
    {
      "name": "bakeObject.009_low.003_MAT_FilingCabinet_0",
      "primitives": [
        {
          "attributes": {
            "NORMAL": 94,
            "POSITION": 93,
            "TANGENT": 95,
            "TEXCOORD_0": 96
          },
          "indices": 97,
          "material": 3,
          "mode": 4
        }
      ]
    },
    {
      "name": "Plane.004_Papers 4_0",
      "primitives": [
        {
          "attributes": {
            "NORMAL": 99,
            "POSITION": 98,
            "TEXCOORD_0": 100
          },
          "indices": 101,
          "material": 1,
          "mode": 4
        }
      ]
    },
    {
      "name": "Plane.003_Papers 3_0",
      "primitives": [
        {
          "attributes": {
            "NORMAL": 103,
            "POSITION": 102,
            "TEXCOORD_0": 104
          },
          "indices": 105,
          "material": 4,
          "mode": 4
        }
      ]
    },
    {
      "name": "Plane.002_Papers_0",
      "primitives": [
        {
          "attributes": {
            "NORMAL": 107,
            "POSITION": 106,
            "TEXCOORD_0": 108
          },
          "indices": 109,
          "material": 5,
          "mode": 4
        }
      ]
    },
    {
      "name": "Plane.001_Papers 2_0",
      "primitives": [
        {
          "attributes": {
            "NORMAL": 111,
            "POSITION": 110,
            "TEXCOORD_0": 112
          },
          "indices": 113,
          "material": 2,
          "mode": 4
        }
      ]
    },
    {
      "name": "Plane__0",
      "primitives": [
        {
          "attributes": {
            "NORMAL": 115,
            "POSITION": 114,
            "TANGENT": 116,
            "TEXCOORD_0": 117
          },
          "indices": 118,
          "material": 0,
          "mode": 4
        }
      ]
    },
    {
      "name": "bakeObject.065_low.002_MAT_FilingCabinet_0",
      "primitives": [
        {
          "attributes": {
            "NORMAL": 120,
            "POSITION": 119,
            "TANGENT": 121,
            "TEXCOORD_0": 122
          },
          "indices": 123,
          "material": 3,
          "mode": 4
        }
      ]
    },
    {
      "name": "bakeObject.009_low.002_MAT_FilingCabinet_0",
      "primitives": [
        {
          "attributes": {
            "NORMAL": 125,
            "POSITION": 124,
            "TANGENT": 126,
            "TEXCOORD_0": 127
          },
          "indices": 128,
          "material": 3,
          "mode": 4
        }
      ]
    },
    {
      "name": "bakeObject.008_low.002_MAT_FilingCabinet_0",
      "primitives": [
        {
          "attributes": {
            "NORMAL": 130,
            "POSITION": 129,
            "TANGENT": 131,
            "TEXCOORD_0": 132
          },
          "indices": 133,
          "material": 3,
          "mode": 4
        }
      ]
    },
    {
      "name": "bakeObject.007_low.002_MAT_FilingCabinet_0",
      "primitives": [
        {
          "attributes": {
            "NORMAL": 135,
            "POSITION": 134,
            "TANGENT": 136,
            "TEXCOORD_0": 137
          },
          "indices": 138,
          "material": 3,
          "mode": 4
        }
      ]
    },
    {
      "name": "bakeObject.006_low.002_MAT_FilingCabinet_0",
      "primitives": [
        {
          "attributes": {
            "NORMAL": 140,
            "POSITION": 139,
            "TANGENT": 141,
            "TEXCOORD_0": 142
          },
          "indices": 143,
          "material": 3,
          "mode": 4
        }
      ]
    },
    {
      "name": "bakeObject.005_low.002_MAT_FilingCabinet_0",
      "primitives": [
        {
          "attributes": {
            "NORMAL": 145,
            "POSITION": 144,
            "TANGENT": 146,
            "TEXCOORD_0": 147
          },
          "indices": 148,
          "material": 3,
          "mode": 4
        }
      ]
    }
  ],
  "nodes": [
    {
      "children": [
        1
      ],
      "matrix": [
        0.010439682751893997,
        0.0,
        0.0,
        0.0,
        0.0,
        2.3180752321869662e-18,
        -0.010439682751893997,
        0.0,
        0.0,
        0.010439682751893997,
        2.3180752321869662e-18,
        0.0,
        0.0,
        0.0,
        0.0,
        1.0
      ],
      "name": "Sketchfab_model"
    },
    {
      "children": [
        2
      ],
      "matrix": [
        1.0,
        0.0,
        0.0,
        0.0,
        0.0,
        0.0,
        1.0,
        0.0,
        0.0,
        -1.0,
        0.0,
        0.0,
        0.0,
        0.0,
        0.0,
        1.0
      ],
      "name": "25b9b25437404f3baad2d261e8481ad2.fbx"
    },
    {
      "children": [
        3,
        5,
        7,
        19,
        31,
        43,
        45,
        47,
        49,
        51,
        53
      ],
      "name": "RootNode"
    },
    {
      "children": [
        4
      ],
      "matrix": [
        2.5767070280505542e-05,
        0.0,
        -132.33753967284906,
        0.0,
        -132.33753967284733,
        -2.1560521901929256e-05,
        -2.576707029519796e-05,
        0.0,
        -2.1560521894583048e-05,
        132.33753967284983,
        -4.2314164867308934e-12,
        0.0,
        -189.69798278808594,
        0.8893142342567444,
        -204.67352294921875,
        1.0
      ],
      "name": "Plane.006"
    },
    {
      "mesh": 0,
      "name": "Plane.006_Papers 4_0"
    },
    {
      "children": [
        6
      ],
      "matrix": [
        132.33753967285156,
        0.0,
        0.0,
        0.0,
        -0.0,
        -2.156052187254442e-05,
        -132.3375396728498,
        0.0,
        0.0,
        132.3375396728498,
        -2.156052187254442e-05,
        0.0,
        -144.5697479248047,
        0.5009337663650513,
        69.42036437988281,
        1.0
      ],
      "name": "Plane.005"
    },
    {
      "mesh": 1,
      "name": "Plane.005_Papers 2_0"
    },
    {
      "children": [
        8,
        9,
        11,
        13,
        15,
        17
      ],
      "matrix": [
        -0.6953396286486502,
        -99.99487222787738,
        0.73622749969674,
        0.0,
        68.65906225215235,
        -1.012683705268268,
        -72.69738075231538,
        0.0,
        72.70110310556042,
        -6.800025670328225e-06,
        68.66257792447517,
        0.0,
        118.81898498535156,
        32.421958923339844,
        -34.105743408203125,
        1.0
      ],
      "name": "bakeObject.065_low.005"
    },
    {
      "mesh": 2,
      "name": "bakeObject.065_low.005_MAT_FilingCabinet_0"
    },
    {
      "children": [
        10
      ],
      "matrix": [
        0.9999999403953552,
        7.768853542249045e-09,
        3.9842526899230846e-09,
        0.0,
        -8.063630885209736e-09,
        0.9967723725772025,
        0.08027900134859972,
        0.0,
        -3.347717003146919e-09,
        -0.08027899177859646,
        0.9967722537526691,
        0.0,
        -5.960464477539063e-08,
        -0.24871528148651123,
        1.4056042432785034,
        1.0
      ],
      "name": "bakeObject.005_low.005"
    },
    {
      "mesh": 3,
      "name": "bakeObject.005_low.005_MAT_FilingCabinet_0"
    },
    {
      "children": [
        12
      ],
      "matrix": [
        0.9999999403953552,
        7.916241414988865e-09,
        4.263782406137284e-09,
        0.0,
        -7.916241886836798e-09,
        1.0,
        7.37632177560954e-13,
        0.0,
        -4.263782406131444e-09,
        -7.376658867275299e-13,
        0.9999999403953552,
        0.0,
        0.0,
        -0.11393386125564575,
        1.0056041479110718,
        1.0
      ],
      "name": "bakeObject.006_low.005"
    },
    {
      "mesh": 4,
      "name": "bakeObject.006_low.005_MAT_FilingCabinet_0"
    },
    {
      "children": [
        14
      ],
      "matrix": [
        0.9999999403953552,
        7.916241414988865e-09,
        4.263782406137284e-09,
        0.0,
        -7.916241886836798e-09,
        1.0,
        7.37632177560954e-13,
        0.0,
        -4.263782406131444e-09,
        -7.376658867275299e-13,
        0.9999999403953552,
        0.0,
        -2.9802322387695313e-08,
        -0.031105637550354004,
        0.6056042909622192,
        1.0
      ],
      "name": "bakeObject.007_low.005"
    },
    {
      "mesh": 5,
      "name": "bakeObject.007_low.005_MAT_FilingCabinet_0"
    },
    {
      "children": [
        16
      ],
      "matrix": [
        -0.0034775371832011324,
        0.3841543237116842,
        0.9232622829399413,
        0.0,
        0.040453091159324356,
        0.9225661474158587,
        -0.383712303488733,
        0.0,
        -0.9991752678728352,
        0.03601443949270144,
        -0.018748487957958464,
        0.0,
        0.14722608029842377,
        -0.7846718430519104,
        0.159251868724823,
        1.0
      ],
      "name": "bakeObject.008_low.005"
    },
    {
      "mesh": 6,
      "name": "bakeObject.008_low.005_MAT_FilingCabinet_0"
    },
    {
      "children": [
        18
      ],
      "matrix": [
        0.9999948445521951,
        0.0004972807748637957,
        0.0031345114925906636,
        0.0,
        0.0004972966598812791,
        0.9508966726507702,
        -0.3095081107785807,
        0.0,
        -0.0031345091686759805,
        0.30950809235588705,
        0.9508915797340963,
        0.0,
        0.0030538439750671387,
        -0.38037049770355225,
        1.8134154081344604,
        1.0
      ],
      "name": "bakeObject.009_low.005"
    },
    {
      "mesh": 7,
      "name": "bakeObject.009_low.005_MAT_FilingCabinet_0"
    },
    {
      "children": [
        20,
        21,
        23,
        25,
        27,
        29
      ],
      "matrix": [
        99.8408111498307,
        -3.469446951953614e-16,
        5.640250787318073,
        0.0,
        5.640250787318067,
        -4.371138984105016e-06,
        -99.84081114983061,
        0.0,
        2.4654320113226547e-07,
        99.99999999999991,
        -4.364180639093718e-06,
        0.0,
        24.784648895263672,
        2.7192578315734863,
        -34.105743408203125,
        1.0
      ],
      "name": "bakeObject.065_low.004"
    },
    {
      "mesh": 8,
      "name": "bakeObject.065_low.004_MAT_FilingCabinet_0"
    },
    {
      "children": [
        22
      ],
      "matrix": [
        1.0000001192092896,
        -1.3877787807814463e-17,
        -4.13590306276514e-25,
        0.0,
        1.3877787807814463e-17,
        1.0000001192092896,
        0.0,
        0.0,
        4.1359025697271328e-25,
        -5.7397171414191677e-42,
        1.0,
        0.0,
        0.0,
        -0.07882285118103027,
        1.805604338645935,
        1.0
      ],
      "name": "bakeObject.009_low.004"
    },
    {
      "mesh": 9,
      "name": "bakeObject.009_low.004_MAT_FilingCabinet_0"
    },
    {
      "children": [
        24
      ],
      "matrix": [
        0.9999636866648898,
        0.0006427996262603626,
        0.008497773838052102,
        0.0,
        -0.000514212122676078,
        0.9998854717859905,
        -0.015125438744050446,
        0.0,
        -0.008506523229563074,
        0.01512051983060136,
        0.9998494931451419,
        0.0,
        -0.004155188798904419,
        -0.06022036075592041,
        0.2056041806936264,
        1.0
      ],
      "name": "bakeObject.008_low.004"
    },
    {
      "mesh": 10,
      "name": "bakeObject.008_low.004_MAT_FilingCabinet_0"
    },
    {
      "children": [
        26
      ],
      "matrix": [
        1.0000001192092896,
        -1.3877787807814463e-17,
        -4.13590306276514e-25,
        0.0,
        1.3877787807814463e-17,
        1.0000001192092896,
        0.0,
        0.0,
        4.1359025697271328e-25,
        -5.7397171414191677e-42,
        1.0,
        0.0,
        -1.4901161193847656e-08,
        -0.031105786561965942,
        0.605604350566864,
        1.0
      ],
      "name": "bakeObject.007_low.004"
    },
    {
      "mesh": 11,
      "name": "bakeObject.007_low.004_MAT_FilingCabinet_0"
    },
    {
      "children": [
        28
      ],
      "matrix": [
        1.0000001192092896,
        -1.3877787807814463e-17,
        -4.13590306276514e-25,
        0.0,
        1.3877787807814463e-17,
        1.0000001192092896,
        0.0,
        0.0,
        4.1359025697271328e-25,
        -5.7397171414191677e-42,
        1.0,
        0.0,
        0.0,
        -0.11393387615680695,
        1.0056042671203613,
        1.0
      ],
      "name": "bakeObject.006_low.004"
    },
    {
      "mesh": 12,
      "name": "bakeObject.006_low.004_MAT_FilingCabinet_0"
    },
    {
      "children": [
        30
      ],
      "matrix": [
        1.0000001192092896,
        -1.387778780781446e-17,
        -4.1359030618021146e-25,
        0.0,
        1.3832994712912123e-17,
        0.9967724337838447,
        0.08027898385400123,
        0.0,
        -1.1140940918818162e-18,
        -0.08027897906900092,
        0.9967723743715778,
        0.0,
        0.0,
        -0.24871546030044556,
        1.405604362487793,
        1.0
      ],
      "name": "bakeObject.005_low.004"
    },
    {
      "mesh": 13,
      "name": "bakeObject.005_low.004_MAT_FilingCabinet_0"
    },
    {
      "children": [
        32,
        33,
        35,
        37,
        39,
        41
      ],
      "matrix": [
        99.90596669604552,
        0.0,
        -4.335821076521335,
        0.0,
        -4.335821076521331,
        -4.371139339800917e-06,
        -99.90596669604544,
        0.0,
        -1.8952475110134426e-07,
        99.9999999999999,
        -4.367028338947421e-06,
        0.0,
        -62.94746398925781,
        2.7192578315734863,
        -34.105743408203125,
        1.0
      ],
      "name": "bakeObject.065_low.003"
    },
    {
      "mesh": 14,
      "name": "bakeObject.065_low.003_MAT_FilingCabinet_0"
    },
    {
      "children": [
        34
      ],
      "matrix": [
        1.0,
        -1.8673256274581718e-09,
        4.152884286456843e-11,
        0.0,
        1.857964815617317e-09,
        0.9967724331857196,
        0.08027899128053465,
        0.0,
        -1.9130181211165947e-10,
        -0.08027898649553389,
        0.9967723737734528,
        0.0,
        1.1102230246251565e-16,
        -0.24871546030044556,
        1.405604362487793,
        1.0
      ],
      "name": "bakeObject.005_low.003"
    },
    {
      "mesh": 15,
      "name": "bakeObject.005_low.003_MAT_FilingCabinet_0"
    },
    {
      "children": [
        36
      ],
      "matrix": [
        1.0,
        -1.862644934125246e-09,
        -4.1359030627651384e-25,
        0.0,
        1.8626451561698253e-09,
        1.0000001192092896,
        -6.61744490042422e-24,
        0.0,
        4.135903186024625e-25,
        6.617444110793037e-24,
        1.0,
        0.0,
        1.1102230246251565e-16,
        -0.11393386125564575,
        1.0056042671203613,
        1.0
      ],
      "name": "bakeObject.006_low.003"
    },
    {
      "mesh": 16,
      "name": "bakeObject.006_low.003_MAT_FilingCabinet_0"
    },
    {
      "children": [
        38
      ],
      "matrix": [
        1.0,
        -1.862644934125246e-09,
        -4.1359030627651384e-25,
        0.0,
        1.8626451561698253e-09,
        1.0000001192092896,
        -6.61744490042422e-24,
        0.0,
        4.135903186024625e-25,
        6.617444110793037e-24,
        1.0,
        0.0,
        1.1102230246251565e-16,
        -0.031105786561965942,
        0.605604350566864,
        1.0
      ],
      "name": "bakeObject.007_low.003"
    },
    {
      "mesh": 17,
      "name": "bakeObject.007_low.003_MAT_FilingCabinet_0"
    },
    {
      "children": [
        40
      ],
      "matrix": [
        1.0,
        -1.878487372597437e-09,
        1.0609187139909419e-10,
        0.0,
        1.8468026820929804e-09,
        0.9907831468071416,
        0.1354575800866753,
        0.0,
        -3.5956939191087883e-10,
        -0.1354575800866753,
        0.9907831468071416,
        0.0,
        0.00868159532546997,
        -0.21651075780391693,
        0.2056041806936264,
        1.0
      ],
      "name": "bakeObject.008_low.003"
    },
    {
      "mesh": 18,
      "name": "bakeObject.008_low.003_MAT_FilingCabinet_0"
    },
    {
      "children": [
        42
      ],
      "matrix": [
        1.0,
        -1.862644934125246e-09,
        -4.1359030627651384e-25,
        0.0,
        1.8626451561698253e-09,
        1.0000001192092896,
        -6.61744490042422e-24,
        0.0,
        4.135903186024625e-25,
        6.617444110793037e-24,
        1.0,
        0.0,
        0.0,
        -0.07882285118103027,
        1.805604338645935,
        1.0
      ],
      "name": "bakeObject.009_low.003"
    },
    {
      "mesh": 19,
      "name": "bakeObject.009_low.003_MAT_FilingCabinet_0"
    },
    {
      "children": [
        44
      ],
      "matrix": [
        132.33753967285156,
        0.0,
        0.0,
        0.0,
        0.0,
        -2.156052187254442e-05,
        -132.3375396728498,
        0.0,
        0.0,
        132.3375396728498,
        -2.156052187254442e-05,
        0.0,
        34.13002395629883,
        0.8893142342567444,
        -188.34645080566406,
        1.0
      ],
      "name": "Plane.004"
    },
    {
      "mesh": 20,
      "name": "Plane.004_Papers 4_0"
    },
    {
      "children": [
        46
      ],
      "matrix": [
        132.33753967285156,
        0.0,
        0.0,
        0.0,
        -0.0,
        -2.156052187254442e-05,
        -132.3375396728498,
        0.0,
        0.0,
        132.3375396728498,
        -2.156052187254442e-05,
        0.0,
        -22.927974700927734,
        0.7970409393310547,
        104.36428833007813,
        1.0
      ],
      "name": "Plane.003"
    },
    {
      "mesh": 21,
      "name": "Plane.003_Papers 3_0"
    },
    {
      "children": [
        48
      ],
      "matrix": [
        132.33753967285156,
        0.0,
        0.0,
        0.0,
        0.0,
        -2.156052187254442e-05,
        -132.3375396728498,
        0.0,
        0.0,
        132.3375396728498,
        -2.156052187254442e-05,
        0.0,
        198.43505859375,
        0.5009337663650513,
        -155.76832580566406,
        1.0
      ],
      "name": "Plane.002"
    },
    {
      "mesh": 22,
      "name": "Plane.002_Papers_0"
    },
    {
      "children": [
        50
      ],
      "matrix": [
        2.5767070280505542e-05,
        0.0,
        -132.33753967284906,
        0.0,
        -132.33753967284733,
        -2.1560521901929256e-05,
        -2.576707029519796e-05,
        0.0,
        -2.1560521894583048e-05,
        132.33753967284983,
        -4.2314164867308934e-12,
        0.0,
        184.407958984375,
        0.5009337663650513,
        188.13250732421875,
        1.0
      ],
      "name": "Plane.001"
    },
    {
      "mesh": 23,
      "name": "Plane.001_Papers 2_0"
    },
    {
      "children": [
        52
      ],
      "matrix": [
        300.0,
        0.0,
        0.0,
        0.0,
        0.0,
        -4.8876203817549424e-05,
        -299.999999999996,
        0.0,
        0.0,
        299.999999999996,
        -4.8876203817549424e-05,
        0.0,
        0.0,
        0.0,
        0.0,
        1.0
      ],
      "name": "Plane"
    },
    {
      "mesh": 24,
      "name": "Plane__0"
    },
    {
      "children": [
        54,
        55,
        57,
        59,
        61,
        63
      ],
      "matrix": [
        99.8408111498307,
        -3.469446951953614e-16,
        5.640250787318073,
        0.0,
        5.640250787318067,
        -4.371138984105016e-06,
        -99.84081114983061,
        0.0,
        2.4654320113226547e-07,
        99.99999999999991,
        -4.364180639093718e-06,
        0.0,
        -145.18431091308594,
        2.7192578315734863,
        -34.105743408203125,
        1.0
      ],
      "name": "bakeObject.065_low.002"
    },
    {
      "mesh": 25,
      "name": "bakeObject.065_low.002_MAT_FilingCabinet_0"
    },
    {
      "children": [
        56
      ],
      "matrix": [
        1.0,
        1.8626451353531696e-09,
        -8.271806125530277e-25,
        0.0,
        -1.8626451353531696e-09,
        1.0,
        6.61744490042422e-24,
        0.0,
        8.271806248789793e-25,
        -6.617444898883476e-24,
        1.0,
        0.0,
        0.0,
        -0.07882283627986908,
        1.805604338645935,
        1.0
      ],
      "name": "bakeObject.009_low.002"
    },
    {
      "mesh": 26,
      "name": "bakeObject.009_low.002_MAT_FilingCabinet_0"
    },
    {
      "children": [
        58
      ],
      "matrix": [
        1.0,
        1.846802696880979e-09,
        3.5956940203085635e-10,
        0.0,
        -1.878487276653391e-09,
        0.9907830877518641,
        0.13545757201277434,
        0.0,
        -1.0609187942265098e-10,
        -0.13545758008667527,
        0.9907831468071416,
        0.0,
        1.1920928955078125e-07,
        -0.4165509343147278,
        0.2056041806936264,
        1.0
      ],
      "name": "bakeObject.008_low.002"
    },
    {
      "mesh": 27,
      "name": "bakeObject.008_low.002_MAT_FilingCabinet_0"
    },
    {
      "children": [
        60
      ],
      "matrix": [
        1.0,
        1.8626451353531696e-09,
        -8.271806125530277e-25,
        0.0,
        -1.8626451353531696e-09,
        1.0,
        6.61744490042422e-24,
        0.0,
        8.271806248789793e-25,
        -6.617444898883476e-24,
        1.0,
        0.0,
        1.1920928955078125e-07,
        -0.031105786561965942,
        0.605604350566864,
        1.0
      ],
      "name": "bakeObject.007_low.002"
    },
    {
      "mesh": 28,
      "name": "bakeObject.007_low.002_MAT_FilingCabinet_0"
    },
    {
      "children": [
        62
      ],
      "matrix": [
        1.0,
        1.8626451353531696e-09,
        -8.271806125530277e-25,
        0.0,
        -1.8626451353531696e-09,
        1.0,
        6.61744490042422e-24,
        0.0,
        8.271806248789793e-25,
        -6.617444898883476e-24,
        1.0,
        0.0,
        1.1920928955078125e-07,
        -0.11393386125564575,
        1.0056042671203613,
        1.0
      ],
      "name": "bakeObject.006_low.002"
    },
    {
      "mesh": 29,
      "name": "bakeObject.006_low.002_MAT_FilingCabinet_0"
    },
    {
      "children": [
        64
      ],
      "matrix": [
        1.0,
        1.8626451353531694e-09,
        7.488648590125906e-11,
        0.0,
        -1.8626450248118659e-09,
        0.9967723743715777,
        0.08027897906900094,
        0.0,
        7.488646947385179e-11,
        -0.08027897906900094,
        0.9967723743715778,
        0.0,
        -2.220446049250313e-16,
        -0.24871544539928436,
        1.405604362487793,
        1.0
      ],
      "name": "bakeObject.005_low.002"
    },
    {
      "mesh": 30,
      "name": "bakeObject.005_low.002_MAT_FilingCabinet_0"
    }
  ],
  "samplers": [
    {
      "magFilter": 9729,
      "minFilter": 9987,
      "wrapS": 10497,
      "wrapT": 10497
    }
  ],
  "scene": 0,
  "scenes": [
    {
      "name": "Sketchfab_Scene",
      "nodes": [
        0
      ]
    }
  ],
  "textures": [
    {
      "sampler": 0,
      "source": 0
    },
    {
      "sampler": 0,
      "source": 1
    },
    {
      "sampler": 0,
      "source": 2
    },
    {
      "sampler": 0,
      "source": 3
    },
    {
      "sampler": 0,
      "source": 4
    },
    {
      "sampler": 0,
      "source": 5
    },
    {
      "sampler": 0,
      "source": 6
    },
    {
      "sampler": 0,
      "source": 7
    },
    {
      "sampler": 0,
      "source": 8
    },
    {
      "sampler": 0,
      "source": 9
    }
  ]
}
