{
  "accessors": [
    {
      "bufferView": 2,
      "componentType": 5126,
      "count": 324,
      "max": [
        2.6096789836883545,
        1.1626451015472412,
        2.0292887687683105
      ],
      "min": [
        -7.518482208251953,
        -1.1626451015472412,
        -2.615687847137451
      ],
      "type": "VEC3"
    },
    {
      "bufferView": 2,
      "byteOffset": 3888,
      "componentType": 5126,
      "count": 324,
      "max": [
        0.9999974966049194,
        1.0,
        1.0
      ],
      "min": [
        -0.9999333024024963,
        -1.0,
        -1.0
      ],
      "type": "VEC3"
    },
    {
      "bufferView": 3,
      "componentType": 5126,
      "count": 324,
      "max": [
        0.9999994039535522,
        0.9999767541885376,
        1.0,
        1.0
      ],
      "min": [
        -1.0,
        -1.0,
        -0.9999997615814209,
        1.0
      ],
      "type": "VEC4"
    },
    {
      "bufferView": 1,
      "componentType": 5126,
      "count": 324,
      "max": [
        0.918676495552063,
        0.8260897994041443
      ],
      "min": [
        0.00748831033706665,
        0.007969331927597523
      ],
      "type": "VEC2"
    },
    {
      "bufferView": 1,
      "byteOffset": 2592,
      "componentType": 5126,
      "count": 324,
      "max": [
        0.918676495552063,
        0.8260897994041443
      ],
      "min": [
        0.00748831033706665,
        0.007969331927597523
      ],
      "type": "VEC2"
    },
    {
      "bufferView": 0,
      "componentType": 5125,
      "count": 1008,
      "type": "SCALAR"
    },
    {
      "bufferView": 2,
      "byteOffset": 7776,
      "componentType": 5126,
      "count": 304,
      "max": [
        2.0353100299835205,
        1.9439160823822021,
        1.0840904712677002
      ],
      "min": [
        -6.284395217895508,
        -1.9439160823822021,
        -7.441371440887451
      ],
      "type": "VEC3"
    },
    {
      "bufferView": 2,
      "byteOffset": 11424,
      "componentType": 5126,
      "count": 304,
      "max": [
        1.0,
        1.0,
        1.0
      ],
      "min": [
        -1.0,
        -1.0,
        -1.0
      ],
      "type": "VEC3"
    },
    {
      "bufferView": 3,
      "byteOffset": 5184,
      "componentType": 5126,
      "count": 304,
      "max": [
        0.3583534359931946,
        1.0,
        1.0,
        1.0
      ],
      "min": [
        -0.4111936092376709,
        -1.0,
        -1.0,
        -1.0
      ],
      "type": "VEC4"
    },
    {
      "bufferView": 1,
      "byteOffset": 5184,
      "componentType": 5126,
      "count": 304,
      "max": [
        0.988941490650177,
        0.9883359670639038
      ],
      "min": [
        -0.3633851408958435,
        0.22293847799301147
      ],
      "type": "VEC2"
    },
    {
      "bufferView": 1,
      "byteOffset": 7616,
      "componentType": 5126,
      "count": 304,
      "max": [
        0.988941490650177,
        0.9883359670639038
      ],
      "min": [
        -0.3633851408958435,
        0.22293847799301147
      ],
      "type": "VEC2"
    },
    {
      "bufferView": 0,
      "byteOffset": 4032,
      "componentType": 5125,
      "count": 912,
      "type": "SCALAR"
    },
    {
      "bufferView": 2,
      "byteOffset": 15072,
      "componentType": 5126,
      "count": 915,
      "max": [
        2.023488759994507,
        1.9058971405029297,
        8.177563667297363
      ],
      "min": [
        -6.129866600036621,
        -1.9067124128341675,
        -25.052289962768555
      ],
      "type": "VEC3"
    },
    {
      "bufferView": 2,
      "byteOffset": 26052,
      "componentType": 5126,
      "count": 915,
      "max": [
        1.0,
        1.0,
        1.0
      ],
      "min": [
        -1.0,
        -1.0,
        -1.0
      ],
      "type": "VEC3"
    },
    {
      "bufferView": 3,
      "byteOffset": 10048,
      "componentType": 5126,
      "count": 915,
      "max": [
        1.0,
        1.0,
        1.0,
        1.0
      ],
      "min": [
        -0.9999182820320129,
        -1.0,
        -0.9999999403953552,
        -1.0
      ],
      "type": "VEC4"
    },
    {
      "bufferView": 1,
      "byteOffset": 10048,
      "componentType": 5126,
      "count": 915,
      "max": [
        0.9922342300415039,
        0.9425111413002014
      ],
      "min": [
        -0.8817568421363831,
        0.007969319820404053
      ],
      "type": "VEC2"
    },
    {
      "bufferView": 1,
      "byteOffset": 17368,
      "componentType": 5126,
      "count": 915,
      "max": [
        0.9922342300415039,
        0.9425111413002014
      ],
      "min": [
        -0.8817568421363831,
        0.007969319820404053
      ],
      "type": "VEC2"
    },
    {
      "bufferView": 0,
      "byteOffset": 7680,
      "componentType": 5125,
      "count": 3510,
      "type": "SCALAR"
    },
    {
      "bufferView": 2,
      "byteOffset": 37032,
      "componentType": 5126,
      "count": 222,
      "max": [
        1.9681622982025146,
        1.010728359222412,
        3.554853916168213
      ],
      "min": [
        -2.0870354175567627,
        -1.010728359222412,
        -10.02506160736084
      ],
      "type": "VEC3"
    },
    {
      "bufferView": 2,
      "byteOffset": 39696,
      "componentType": 5126,
      "count": 222,
      "max": [
        1.0,
        1.0,
        1.0
      ],
      "min": [
        -0.9999977946281433,
        -1.0,
        -0.9984596967697144
      ],
      "type": "VEC3"
    },
    {
      "bufferView": 3,
      "byteOffset": 24688,
      "componentType": 5126,
      "count": 222,
      "max": [
        1.0,
        1.0,
        1.0,
        1.0
      ],
      "min": [
        -1.0,
        -1.0,
        -1.0,
        1.0
      ],
      "type": "VEC4"
    },
    {
      "bufferView": 1,
      "byteOffset": 24688,
      "componentType": 5126,
      "count": 222,
      "max": [
        0.8981680870056152,
        0.9572303891181946
      ],
      "min": [
        0.00748831033706665,
        0.1803521066904068
      ],
      "type": "VEC2"
    },
    {
      "bufferView": 1,
      "byteOffset": 26464,
      "componentType": 5126,
      "count": 222,
      "max": [
        0.8981680870056152,
        0.9572303891181946
      ],
      "min": [
        0.00748831033706665,
        0.1803521066904068
      ],
      "type": "VEC2"
    },
    {
      "bufferView": 0,
      "byteOffset": 21720,
      "componentType": 5125,
      "count": 618,
      "type": "SCALAR"
    }
  ],
  "asset": {
    "extras": {
      "author": "kiberbuller (https://sketchfab.com/kiberbuller)",
      "license": "CC-BY-4.0 (http://creativecommons.org/licenses/by/4.0/)",
      "source": "https://sketchfab.com/3d-models/key-19th-homework-e2ce473404204835b828e44e78e3579a",
      "title": "Key (19th Homework)"
    },
    "generator": "Sketchfab-12.68.0",
    "version": "2.0"
  },
  "bufferViews": [
    {
      "buffer": 0,
      "byteLength": 24192,
      "name": "floatBufferViews",
      "target": 34963
    },
    {
      "buffer": 0,
      "byteLength": 28240,
      "byteOffset": 24192,
      "byteStride": 8,
      "name": "floatBufferViews",
      "target": 34962
    },
    {
      "buffer": 0,
      "byteLength": 42360,
      "byteOffset": 52432,
      "byteStride": 12,
      "name": "floatBufferViews",
      "target": 34962
    },
    {
      "buffer": 0,
      "byteLength": 28240,
      "byteOffset": 94792,
      "byteStride": 16,
      "name": "floatBufferViews",
      "target": 34962
    }
  ],
  "buffers": [
    {
      "byteLength": 123032,
      "uri": "scene.bin"
    }
  ],
  "images": [
    {
      "uri": "textures/blinn4_baseColor.png"
    },
    {
      "uri": "textures/blinn4_metallicRoughness.png"
    },
    {
      "uri": "textures/blinn4_normal.png"
    }
  ],
  "materials": [
    {
      "doubleSided": true,
      "name": "blinn4",
      "normalTexture": {
        "index": 2
      },
      "pbrMetallicRoughness": {
        "baseColorTexture": {
          "index": 0
        },
        "metallicRoughnessTexture": {
          "index": 1
        }
      }
    }
  ],
  "meshes": [
    {
      "name": "grp3_lo_blinn4_0",
      "primitives": [
        {
          "attributes": {
            "NORMAL": 1,
            "POSITION": 0,
            "TANGENT": 2,
            "TEXCOORD_0": 3,
            "TEXCOORD_1": 4
          },
          "indices": 5,
          "material": 0,
          "mode": 4
        }
      ]
    },
    {
      "name": "grp1_lo_blinn4_0",
      "primitives": [
        {
          "attributes": {
            "NORMAL": 7,
            "POSITION": 6,
            "TANGENT": 8,
            "TEXCOORD_0": 9,
            "TEXCOORD_1": 10
          },
          "indices": 11,
          "material": 0,
          "mode": 4
        }
      ]
    },
    {
      "name": "grp_4lo_blinn4_0",
      "primitives": [
        {
          "attributes": {
            "NORMAL": 13,
            "POSITION": 12,
            "TANGENT": 14,
            "TEXCOORD_0": 15,
            "TEXCOORD_1": 16
          },
          "indices": 17,
          "material": 0,
          "mode": 4
        }
      ]
    },
    {
      "name": "grp2_lo_blinn4_0",
      "primitives": [
        {
          "attributes": {
            "NORMAL": 19,
            "POSITION": 18,
            "TANGENT": 20,
            "TEXCOORD_0": 21,
            "TEXCOORD_1": 22
          },
          "indices": 23,
          "material": 0,
          "mode": 4
        }
      ]
    }
  ],
  "nodes": [
    {
      "children": [
        1
      ],
      "matrix": [
        1.0,
        0.0,
        0.0,
        0.0,
        0.0,
        2.220446049250313e-16,
        -1.0,
        0.0,
        0.0,
        1.0,
        2.220446049250313e-16,
        0.0,
        0.0,
        0.0,
        0.0,
        1.0
      ],
      "name": "Sketchfab_model"
    },
    {
      "children": [
        2
      ],
      "matrix": [
        1.0,
        0.0,
        0.0,
        0.0,
        0.0,
        0.0,
        1.0,
        0.0,
        0.0,
        -1.0,
        0.0,
        0.0,
        0.0,
        0.0,
        0.0,
        1.0
      ],
      "name": "f85014eed9dc4b79b6cc2456cb8e6ef1.fbx"
    },
    {
      "children": [
        3
      ],
      "name": "RootNode"
    },
    {
      "children": [
        4,
        6,
        8,
        10
      ],
      "name": "lo_grp"
    },
    {
      "children": [
        5
      ],
      "name": "grp3_lo"
    },
    {
      "mesh": 0,
      "name": "grp3_lo_blinn4_0"
    },
    {
      "children": [
        7
      ],
      "name": "grp1_lo"
    },
    {
      "mesh": 1,
      "name": "grp1_lo_blinn4_0"
    },
    {
      "children": [
        9
      ],
      "name": "grp_4lo"
    },
    {
      "mesh": 2,
      "name": "grp_4lo_blinn4_0"
    },
    {
      "children": [
        11
      ],
      "name": "grp2_lo"
    },
    {
      "mesh": 3,
      "name": "grp2_lo_blinn4_0"
    }
  ],
  "samplers": [
    {
      "magFilter": 9729,
      "minFilter": 9987,
      "wrapS": 10497,
      "wrapT": 10497
    }
  ],
  "scene": 0,
  "scenes": [
    {
      "name": "Sketchfab_Scene",
      "nodes": [
        0
      ]
    }
  ],
  "textures": [
    {
      "sampler": 0,
      "source": 0
    },
    {
      "sampler": 0,
      "source": 1
    },
    {
      "sampler": 0,
      "source": 2
    }
  ]
}
