{
  "accessors": [
    {
      "bufferView": 2,
      "componentType": 5126,
      "count": 258,
      "max": [
        3.2671544551849365,
        10.725406646728516,
        2.250453233718872
      ],
      "min": [
        -3.2671544551849365,
        0.13632017374038696,
        0.25752443075180054
      ],
      "type": "VEC3"
    },
    {
      "bufferView": 2,
      "byteOffset": 3096,
      "componentType": 5126,
      "count": 258,
      "max": [
        1.0,
        1.0,
        1.0
      ],
      "min": [
        -1.0,
        -1.0,
        -1.0
      ],
      "type": "VEC3"
    },
    {
      "bufferView": 1,
      "componentType": 5126,
      "count": 258,
      "max": [
        0.749072253704071,
        0.9701465964317322
      ],
      "min": [
        0.016941197216510773,
        0.009726166725158691
      ],
      "type": "VEC2"
    },
    {
      "bufferView": 0,
      "componentType": 5125,
      "count": 546,
      "type": "SCALAR"
    }
  ],
  "asset": {
    "extras": {
      "author": "StaticBuffering (https://sketchfab.com/StaticBuffering)",
      "license": "CC-BY-4.0 (http://creativecommons.org/licenses/by/4.0/)",
      "source": "https://sketchfab.com/3d-models/low-poly-book-shelf-9f9e0e532a5846c1acc252fcf664813b",
      "title": "Low Poly Book Shelf"
    },
    "generator": "Sketchfab-14.20.0",
    "version": "2.0"
  },
  "bufferViews": [
    {
      "buffer": 0,
      "byteLength": 2184,
      "name": "floatBufferViews",
      "target": 34963
    },
    {
      "buffer": 0,
      "byteLength": 2064,
      "byteOffset": 2184,
      "byteStride": 8,
      "name": "floatBufferViews",
      "target": 34962
    },
    {
      "buffer": 0,
      "byteLength": 6192,
      "byteOffset": 4248,
      "byteStride": 12,
      "name": "floatBufferViews",
      "target": 34962
    }
  ],
  "buffers": [
    {
      "byteLength": 10440,
      "uri": "scene.bin"
    }
  ],
  "materials": [
    {
      "doubleSided": true,
      "name": "BookShelf_Brown",
      "pbrMetallicRoughness": {
        "baseColorFactor": [
          0.15766773041875703,
          0.09364245602466816,
          0.05865117685280359,
          1.0
        ],
        "metallicFactor": 0.0,
        "roughnessFactor": 0.4956175104533652
      }
    }
  ],
  "meshes": [
    {
      "name": "bookShelf_BookShelf_Brown_0",
      "primitives": [
        {
          "attributes": {
            "NORMAL": 1,
            "POSITION": 0,
            "TEXCOORD_0": 2
          },
          "indices": 3,
          "material": 0,
          "mode": 4
        }
      ]
    }
  ],
  "nodes": [
    {
      "children": [
        1
      ],
      "matrix": [
        1.0,
        0.0,
        0.0,
        0.0,
        0.0,
        2.220446049250313e-16,
        -1.0,
        0.0,
        0.0,
        1.0,
        2.220446049250313e-16,
        0.0,
        0.0,
        0.0,
        0.0,
        1.0
      ],
      "name": "Sketchfab_model"
    },
    {
      "children": [
        2
      ],
      "matrix": [
        0.009999999776482582,
        0.0,
        0.0,
        0.0,
        0.0,
        0.0,
        0.009999999776482582,
        0.0,
        0.0,
        -0.009999999776482582,
        0.0,
        0.0,
        0.0,
        0.0,
        0.0,
        1.0
      ],
      "name": "f342f71caad842c797ff4a09c6bb3e72.fbx"
    },
    {
      "children": [
        3
      ],
      "name": "RootNode"
    },
    {
      "children": [
        4
      ],
      "name": "bookShelf"
    },
    {
      "mesh": 0,
      "name": "bookShelf_BookShelf_Brown_0"
    }
  ],
  "scene": 0,
  "scenes": [
    {
      "name": "Sketchfab_Scene",
      "nodes": [
        0
      ]
    }
  ]
}
